<svg xmlns="http://www.w3.org/2000/svg" viewBox="0 0 64 64">
    <defs>
        <style>.cls-1{fill:#d4d4d8;}</style>
    </defs>
    <g id="Layer_2" data-name="Layer 2">
        <g id="Layer_1-2" data-name="Layer 1">
            <path class="cls-1" d="M63,29.9,25.65.56a2.68,2.68,0,0,0-4.32,2.11V13.92L4.32.56A2.72,2.72,0,0,0,1.49.27,2.71,2.71,0,0,0,0,2.67V61.34a2.72,2.72,0,0,0,1.49,2.4A2.74,2.74,0,0,0,2.67,64a2.66,2.66,0,0,0,1.65-.56l17-13.36V61.34a2.71,2.71,0,0,0,1.5,2.4A2.66,2.66,0,0,0,24,64a2.63,2.63,0,0,0,1.65-.56L63,34.11a2.7,2.7,0,0,0,0-4.21ZM5.33,55.84V8.16l16,12.56,5.34,4.19,9,7.09-9,7.1Zm21.34,0V45.9l15-11.79a2.68,2.68,0,0,0,0-4.21l-15-11.79V8.16L57,32Z"/>
        </g>
    </g>
</svg>